<?xml version="1.0" standalone="no"?>
<!DOCTYPE svg PUBLIC "-//W3C//DTD SVG 1.1//EN" "http://www.w3.org/Graphics/SVG/1.1/DTD/svg11.dtd">
<svg xmlns="http://www.w3.org/2000/svg" xmlns:xlink="http://www.w3.org/1999/xlink" t="1710247604501" class="icon" viewBox="0 0 1024 1024" version="1.1" p-id="919" width="200" height="200">
  <path d="M828.505 136.953c16.472-18.61 44.911-20.343 63.521-3.871 18.424 16.307 20.307 44.344 4.36 62.96l-0.488 0.562L455.32 694.366a5 5 0 0 0-1.25 3.055l-0.006 0.26 0.073 192.228c0.009 24.852-20.13 45.007-44.983 45.017-24.605 0.009-44.604-19.73-45.011-44.24l-0.006-0.743-0.073-192.227a95 95 0 0 1 23.358-62.426l0.505-0.575 440.578-497.762z" fill="#1296db" p-id="920"/>
  <path d="M801.3 96.97a95 95 0 0 1 53.085-6.677c51.276 8.293 86.285 56.184 78.852 107.397l-0.239 1.552-93.618 578.825a125 125 0 0 1-13.304 39.241c-32.694 60.803-108.49 83.588-169.292 50.893l-103.843-55.839c-21.89-11.77-30.092-39.056-18.322-60.945 11.77-21.889 39.056-30.092 60.945-18.322l103.844 55.84c17.025 9.154 38.247 2.774 47.402-14.25a35 35 0 0 0 3.608-10.311l0.117-0.677 93.618-578.824a5 5 0 0 0-6.665-5.49l-0.267 0.107-636.39 277.03c-17.724 7.715-25.837 28.337-18.122 46.06a35 35 0 0 0 15.515 16.857l91.557 49.232c21.89 11.77 30.092 39.056 18.322 60.945-11.77 21.89-39.056 30.092-60.945 18.322L155.6 598.704a125 125 0 0 1-55.412-60.201c-27.28-62.666 0.847-135.477 62.83-163.663l1.89-0.84 636.39-277.03z" fill="#1296db" p-id="921"/>
</svg>
